<svg xmlns="http://www.w3.org/2000/svg" width="53" height="45"><path data-name="Path 1229" d="M44.719 0H8.281A8.241 8.241 0 000 8.182v28.636A8.241 8.241 0 008.281 45h28.26a2.046 2.046 0 100-4.091h-7.625l-4.76-6.1L39.24 15.852 49.395 26.94a2.087 2.087 0 002.279.537A2.047 2.047 0 0053 25.568V8.182A8.241 8.241 0 0044.719 0zm4.141 20.259l-8.2-8.949a2.086 2.086 0 00-3.163.108L21.548 31.466l-5.416-6.942a2.079 2.079 0 00-1.64-.8 2.079 2.079 0 00-1.64.8l-4.557 5.853a2.029 2.029 0 00.378 2.868 2.087 2.087 0 002.9-.374l2.917-3.747 9.194 11.784H8.281a4.121 4.121 0 01-4.141-4.091V8.182a4.121 4.121 0 014.141-4.091h36.438a4.121 4.121 0 014.141 4.091zm0 0" fill="#e6eaed"/><path data-name="Path 1230" d="M14.492 7.364a6.137 6.137 0 106.211 6.136 6.181 6.181 0 00-6.211-6.136zm0 8.182a2.046 2.046 0 112.07-2.045 2.06 2.06 0 01-2.07 2.045zm0 0" fill="#e6eaed"/><path data-name="Path 1231" d="M48.495 29.007l-.018-.018a5.2 5.2 0 00-7.322-.009l-4 3.9a2.028 2.028 0 00-.02 2.892 2.088 2.088 0 002.928.02l2.679-2.613v9.5a2.07 2.07 0 004.141 0v-9.442l2.561 2.614a2.088 2.088 0 002.928.047 2.028 2.028 0 00.047-2.892zm0 0" fill="#e6eaed"/></svg>