<?xml version="1.0" encoding="utf-8"?>
<!-- Generator: Adobe Illustrator 27.0.0, SVG Export Plug-In . SVG Version: 6.00 Build 0)  -->
<svg version="1.1" baseProfile="basic" id="Layer_1"
	 xmlns="http://www.w3.org/2000/svg" xmlns:xlink="http://www.w3.org/1999/xlink" x="0px" y="0px" viewBox="0 0 550 550"
	 xml:space="preserve">
<style type="text/css">
	.st0{fill:#FFFFFF;}
</style>
<g id="_x31_0964_-_Task_Organization_App">
	<g>
		<g>
			<g>
				<path class="st0" d="M316.6,362.4H216.5c-4.8,0-8.8-3.9-8.8-8.8V196.4c0-4.8,3.9-8.8,8.8-8.8h100.1c4.8,0,8.8,3.9,8.8,8.8v21.7
					c0,1.1-0.9,2-2,2c-1.1,0-2-0.9-2-2v-21.7c0-2.7-2.2-4.8-4.8-4.8H216.5c-2.7,0-4.8,2.2-4.8,4.8v157.2c0,2.7,2.2,4.8,4.8,4.8
					h100.1c2.7,0,4.8-2.2,4.8-4.8V251.9c0-1.1,0.9-2,2-2s2,0.9,2,2v101.7C325.4,358.4,321.5,362.4,316.6,362.4z"/>
			</g>
		</g>
		<g>
			<g>
				<g>
					<path class="st0" d="M323.4,207.6H209.7c-1.1,0-2-0.9-2-2s0.9-2,2-2h113.7c1.1,0,2,0.9,2,2S324.5,207.6,323.4,207.6z"/>
				</g>
			</g>
			<g>
				<g>
					<path class="st0" d="M323.4,346.4H209.7c-1.1,0-2-0.9-2-2c0-1.1,0.9-2,2-2h113.7c1.1,0,2,0.9,2,2
						C325.4,345.5,324.5,346.4,323.4,346.4z"/>
				</g>
			</g>
		</g>
		<g>
			<g>
				<g>
					<path class="st0" d="M292.9,274.3h-52.7c-1.1,0-2-0.9-2-2v-11c0-14.6,11.9-26.5,26.5-26.5h3.6c14.6,0,26.5,11.9,26.5,26.5v11
						C294.9,273.5,294,274.3,292.9,274.3z M242.1,270.4h48.8v-9.1c0-12.5-10.1-22.6-22.6-22.6h-3.6c-12.5,0-22.6,10.1-22.6,22.6
						L242.1,270.4L242.1,270.4z"/>
				</g>
			</g>
			<g>
				<g>
					<path class="st0" d="M266.6,238.8c-7.9,0-14.4-6.4-14.4-14.4c0-7.9,6.4-14.4,14.4-14.4c7.9,0,14.4,6.4,14.4,14.4
						C280.9,232.3,274.5,238.8,266.6,238.8z M266.6,213.9c-5.8,0-10.5,4.7-10.5,10.5c0,5.8,4.7,10.5,10.5,10.5
						c5.8,0,10.5-4.7,10.5-10.5C277.1,218.6,272.3,213.9,266.6,213.9z"/>
				</g>
			</g>
		</g>
		<g>
			<g>
				<g>
					<path class="st0" d="M239.7,302.5h-20.1c-1.1,0-2-0.9-2-2v-20.1c0-1.1,0.9-2,2-2h20.1c1.1,0,2,0.9,2,2v20.1
						C241.7,301.6,240.8,302.5,239.7,302.5z M221.6,298.6h16.2v-16.2h-16.2V298.6z"/>
				</g>
			</g>
			<g>
				<g>
					<g>
						<path class="st0" d="M314.4,286.4h-61.8c-1.1,0-2-0.9-2-2c0-1.1,0.9-2,2-2h61.7c1.1,0,2,0.9,2,2
							C316.3,285.6,315.4,286.4,314.4,286.4z"/>
					</g>
				</g>
				<g>
					<g>
						<path class="st0" d="M314.4,298.5h-61.8c-1.1,0-2-0.9-2-2c0-1.1,0.9-2,2-2h61.7c1.1,0,2,0.9,2,2
							C316.3,297.6,315.4,298.5,314.4,298.5z"/>
					</g>
				</g>
			</g>
		</g>
		<g>
			<g>
				<g>
					<path class="st0" d="M239.7,336.1h-20.1c-1.1,0-2-0.9-2-2V314c0-1.1,0.9-2,2-2h20.1c1.1,0,2,0.9,2,2v20.1
						C241.7,335.3,240.8,336.1,239.7,336.1z M221.6,332.2h16.2V316h-16.2V332.2z"/>
				</g>
			</g>
			<g>
				<g>
					<g>
						<path class="st0" d="M314.4,320.1h-61.8c-1.1,0-2-0.9-2-2c0-1.1,0.9-2,2-2h61.7c1.1,0,2,0.9,2,2
							C316.3,319.2,315.4,320.1,314.4,320.1z"/>
					</g>
				</g>
				<g>
					<g>
						<path class="st0" d="M314.4,332.1h-61.8c-1.1,0-2-0.9-2-2c0-1.1,0.9-2,2-2h61.7c1.1,0,2,0.9,2,2
							C316.3,331.2,315.4,332.1,314.4,332.1z"/>
					</g>
				</g>
			</g>
		</g>
		<g>
			<g>
				<path class="st0" d="M323.4,253.9c-10.4,0-18.9-8.5-18.9-18.9S313,216,323.4,216s18.9,8.5,18.9,18.9S333.8,253.9,323.4,253.9z
					 M323.4,220c-8.3,0-14.9,6.7-14.9,14.9c0,8.3,6.7,14.9,14.9,14.9s14.9-6.7,14.9-14.9C338.4,226.8,331.7,220,323.4,220z"/>
			</g>
		</g>
		<g>
			<g>
				<path class="st0" d="M320.2,242.6c-0.5,0-1-0.2-1.4-0.6l-4.9-4.9c-0.7-0.7-0.7-2,0-2.8c0.8-0.8,2-0.8,2.8,0l3.5,3.5l10-10
					c0.8-0.8,2-0.8,2.8,0c0.7,0.7,0.7,2,0,2.8l-11.4,11.4C321.2,242.4,320.7,242.6,320.2,242.6z"/>
			</g>
		</g>
		<g>
			<g>
				<path class="st0" d="M223.1,274.3c-1.1,0-2-0.9-2-2v-60.4c0-1.1,0.9-2,2-2s2,0.9,2,2v60.4C225,273.5,224.2,274.3,223.1,274.3z"
					/>
			</g>
		</g>
	</g>
</g>
<g id="Layer_1_1_">
</g>
</svg>
